# xmcd
#
# Track frame offsets:
#	150
#	26048
#	42394
#	69614
#	99638
#	122941
#	149184
#	188598
#
# Disc length: 2924 seconds
#
# Revision: 0
# Processed by: cddbd v1.5.1PL2 Copyright (c) Steve Scherf et al.
# Submitted via: EasyCDDAExtractor 8.2.3.1
#
DISCID=7b0b6a08
DTITLE=Paul Barrere and Fred Tackett - Live - Iron Horse Cafe 12-10-02 disc 1
DYEAR=2002
DGENRE=Blues
TTITLE0=Down On The Farm>
TTITLE1=Candyman > Down On The Farm
TTITLE2=Marginal Creatures
TTITLE3=Sailin' Shoes
TTITLE4=Rocket In My Pocket
TTITLE5=Gold Tooth Woman
TTITLE6=Jam> All That You Dream
TTITLE7=Skin It Back
EXTD=
EXTT0=
EXTT1=
EXTT2=
EXTT3=
EXTT4=
EXTT5=
EXTT6=
EXTT7=
PLAYORDER=
